<svg xmlns="http://www.w3.org/2000/svg" xmlns:xlink="http://www.w3.org/1999/xlink" viewBox="0 0 216 216"><defs><style>.cls-1{fill:none;}.cls-2{fill:url(#未命名的渐变_13);}.cls-3{fill:url(#未命名的渐变_13-2);}.cls-4{fill:url(#未命名的渐变_13-3);}.cls-5{fill:#fff;}.cls-6{fill:#ffe3b9;}</style><linearGradient id="未命名的渐变_13" x1="19" y1="43" x2="198" y2="43" gradientUnits="userSpaceOnUse"><stop offset="0" stop-color="#b9d5ff"/><stop offset="1" stop-color="#0e43ad"/></linearGradient><linearGradient id="未命名的渐变_13-2" y1="108" y2="108" xlink:href="#未命名的渐变_13"/><linearGradient id="未命名的渐变_13-3" y1="173" y2="173" xlink:href="#未命名的渐变_13"/></defs><g id="图层_2" data-name="图层 2"><g id="图层_1-2" data-name="图层 1"><rect class="cls-1" width="216" height="216" rx="22.42"/><path class="cls-2" d="M174,19H43a24,24,0,0,0,0,48H174a24,24,0,0,0,0-48ZM43.25,57.5A14.25,14.25,0,1,1,57.5,43.25,14.25,14.25,0,0,1,43.25,57.5Z"/><path class="cls-3" d="M174,84H43a24,24,0,0,0,0,48H174a24,24,0,0,0,0-48ZM43.25,122.5A14.25,14.25,0,1,1,57.5,108.25,14.25,14.25,0,0,1,43.25,122.5Z"/><path class="cls-4" d="M174,149H43a24,24,0,0,0,0,48H174a24,24,0,0,0,0-48ZM43.25,187.5A14.25,14.25,0,1,1,57.5,173.25,14.25,14.25,0,0,1,43.25,187.5Z"/><path class="cls-5" d="M174.49,88.55l3.4,32a8.18,8.18,0,0,0,4.23,6.31l28.31,15.35a8.16,8.16,0,0,1-.56,14.62L180.46,170a8.18,8.18,0,0,0-4.69,6l-5.85,31.67a8.16,8.16,0,0,1-14.08,4l-21.58-23.9a8.13,8.13,0,0,0-7.12-2.63l-31.93,4.23a8.16,8.16,0,0,1-8.14-12.16l16.07-27.91a8.16,8.16,0,0,0,.29-7.59L89.55,112.59a8.15,8.15,0,0,1,9-11.49l31.51,6.65a8.14,8.14,0,0,0,7.3-2.06L160.76,83.5A8.16,8.16,0,0,1,174.49,88.55Z"/><path class="cls-6" d="M164,110.62,166,130a4.92,4.92,0,0,0,2.55,3.8l17.1,9.27a4.93,4.93,0,0,1-.34,8.83l-17.76,7.93a4.89,4.89,0,0,0-2.83,3.6l-3.53,19.12a4.93,4.93,0,0,1-8.5,2.4l-13-14.43a4.93,4.93,0,0,0-4.3-1.58l-19.27,2.55a4.93,4.93,0,0,1-4.92-7.34l9.7-16.85a4.92,4.92,0,0,0,.18-4.58l-8.38-17.55a4.93,4.93,0,0,1,5.46-6.94l19,4a4.89,4.89,0,0,0,4.41-1.25l14.1-13.39A4.93,4.93,0,0,1,164,110.62Z"/></g></g></svg>